<svg width="52" height="52" viewBox="0 0 52 52" fill="none" xmlns="http://www.w3.org/2000/svg">
<g clip-path="url(#clip0_1_572)">
<circle cx="26" cy="26" r="26" fill="#81BFFD"/>
<mask id="mask0_1_572" style="mask-type:alpha" maskUnits="userSpaceOnUse" x="0" y="0" width="52" height="52">
<circle cx="26" cy="26" r="26" fill="#CEE6FE"/>
</mask>
<g mask="url(#mask0_1_572)">
<path d="M71.0996 33.0811H71.097C71.097 33.0811 71.0996 33.0836 71.1021 33.0862C71.1021 33.0862 71.1021 33.0811 71.1021 33.0786L71.0996 33.0811ZM103.246 40.2012L103.251 40.2063C103.251 40.2063 103.248 40.2037 103.246 40.2012Z" fill="#0EA67B"/>
<path d="M126.119 1.07962C125.141 1.01432 124.204 0.876188 123.244 0.622527C120.787 -0.0329738 118.388 -1.05264 115.685 -0.301704C114.956 -0.0982733 113.935 -0.359468 113.051 -0.459929C111.708 -0.615642 110.513 -1.43941 109.087 -1.23347C108.459 -1.14306 107.782 -1.09785 107.19 -1.42183C105.776 -2.19286 104.031 -1.68052 102.653 -2.59973C102.39 -2.77553 101.967 -2.75293 101.774 -2.44401C101.523 -2.04971 101.994 -2.03966 102.169 -1.86135C102.25 -1.77847 102.301 -1.56248 102.25 -1.46955C102.144 -1.27365 99.4336 -1.241 99.2259 -1.39421C98.5369 -1.90404 97.7796 -2.24309 96.9462 -2.49424C96.2142 -2.71274 95.6671 -2.13259 95.049 -2.223C93.5571 -2.4415 92.0297 -2.16272 90.6695 -3.42601C89.4562 -4.55116 87.5412 -4.13676 85.9404 -4.26234C85.4135 -4.30252 84.6967 -3.72237 83.9748 -3.66209C83.5822 -3.62944 83.1946 -3.43605 82.8096 -3.44861C81.7255 -3.49131 81.0948 -2.32346 79.9878 -2.45908C79.6965 -2.49424 79.4762 -2.45406 79.3571 -2.0698C79.2887 -1.84628 78.8252 -1.52983 78.6504 -1.58759C77.2927 -2.03715 77.161 -1.73577 78.0324 -0.698521C78.0653 -0.660849 78.0197 -0.560389 78.0121 -0.487555C77.9665 -0.510159 77.9057 -0.520205 77.8779 -0.555366C77.6803 -0.826608 77.3814 -1.08278 77.3231 -1.38165C77.2395 -1.82367 77.1813 -2.2004 76.6671 -2.30086C75.8261 -2.46662 75.5576 -1.83372 75.203 -1.29123C74.9573 -0.917022 75.2157 -0.74624 75.4209 -0.532763C75.4589 -0.49509 75.4842 -0.444859 75.5146 -0.402164C75.4512 -0.397141 75.3854 -0.37956 75.3221 -0.387095C74.6711 -0.487555 74.0201 -0.665872 73.3666 -0.66336C73.0094 -0.66336 72.1356 -1.49467 72.2723 -0.206267C72.2774 -0.171106 72.0494 -0.105808 71.9279 -0.0606008C71.0261 0.278452 70.0357 -0.334354 69.1542 0.195572L69.1593 0.190549C68.9161 0.368865 68.678 0.552205 68.4298 0.722987C68.2778 0.825959 67.9967 0.971625 67.9612 0.740568C67.8447 -0.00785923 67.2773 -0.00283623 66.8011 0.0850663C66.2818 0.183014 66.5655 0.707918 66.5022 1.04446C66.4237 1.45383 65.988 1.17506 65.798 1.41867C65.7018 1.54174 65.684 1.41114 65.7018 1.29561C65.8233 0.572297 65.3801 0.336216 64.7747 0.130273C63.569 -0.281612 62.2848 -0.402164 61.1196 -0.994878C60.4078 -1.35653 59.5314 -1.349 58.769 -1.12799C57.6646 -0.806516 56.4665 -0.768843 55.4583 -0.153525C55.0708 0.0825553 53.9461 -0.341888 54.4983 0.825959C54.5313 0.891258 54.3691 1.04195 54.3084 1.15748C53.6498 2.41825 52.3352 2.86027 51.2409 3.57354C50.324 4.17127 50.8382 4.94733 51.1345 5.55009C51.3878 6.06495 52.0515 6.296 52.5961 5.88914C53.4623 5.24117 53.6574 5.76105 53.8043 6.46679C53.8347 6.61245 53.822 6.76565 53.8296 6.91634C53.7106 6.80333 53.5307 6.70789 53.4826 6.56976C53.2445 5.8791 52.8899 6.04988 52.4567 6.37888C52.016 6.71542 52.1882 7.18005 52.2794 7.52413C52.4542 8.16707 52.1047 8.3479 51.6335 8.45338C51.0712 8.57896 50.6203 8.79494 50.3316 9.33743C50.1365 9.7016 49.6578 9.81964 49.3336 9.72169C49.0169 9.62374 49.4703 9.40775 49.4627 9.19176C49.4526 8.92554 49.3538 8.76481 49.1715 8.5664C48.6573 8.01136 48.0544 7.41864 47.9759 6.68026C47.91 6.04988 47.4718 5.33912 46.8208 5.37931C46.2838 5.41196 45.7241 5.63548 45.6455 6.08253C45.5315 6.70538 45.7012 7.38348 46.2965 7.83806C46.7448 8.18214 46.7474 8.20977 46.5523 8.38557C45.9318 8.95066 46.1825 9.80708 45.8456 10.4802C45.719 10.7338 46.1217 10.7715 46.3826 10.671C47.1121 10.3897 47.8594 10.2039 48.6522 10.2391C48.7256 10.2391 48.8016 10.2391 48.8751 10.2391C48.8548 10.2818 48.8447 10.3496 48.8118 10.3621C48.1963 10.6007 47.5934 10.887 46.9576 11.0427C46.6081 11.1281 46.18 11.0503 46.0685 11.4722C45.9571 11.9017 46.3725 12.0021 46.6663 12.1729C47.406 12.6074 47.5149 13.2453 47.2439 14.0088C47.0159 14.6543 46.5371 14.3303 46.1445 14.3027C45.6151 14.2675 45.0857 14.152 44.5589 14.1595C44.0219 14.167 43.4216 14.2976 43.5001 15.0034C43.5786 15.6991 43.4216 16.3169 43.2822 16.9824C43.1708 17.5149 42.7984 18.4391 43.8015 18.6099C44.759 18.7731 44.9591 18.9941 44.4449 19.8129C44.2473 20.1293 44.0193 20.4182 43.6673 20.6191C43.0214 20.9883 42.5097 21.4604 42.5831 22.3169C42.611 22.6559 42.4945 23.0552 42.1677 23.1984C40.8734 23.761 40.1211 24.8284 39.5208 25.9987C39.0344 26.9455 38.1327 27.7769 38.7685 29.0803C39.1205 29.8011 38.928 30.6425 38.5177 31.4135C38.0694 32.2574 38.4721 33.714 39.2168 34.3645C39.3713 34.4976 39.5106 34.6684 39.5993 34.8517C40.2528 36.1753 41.0304 37.3884 42.3501 38.1745C42.7225 38.398 43.1227 38.8501 43.5077 38.6592C45.03 37.9007 46.836 38.7647 48.3356 37.7023C48.8599 37.3306 49.8528 37.2226 50.3189 38.0263C50.6381 38.5788 50.98 38.7195 51.5525 38.6315C52.5074 38.4834 52.9 39.0937 52.7176 40.0279C52.5657 40.7864 52.0616 41.6554 52.4897 42.341C52.9861 43.1347 53.5637 43.9132 53.936 44.7546C54.5921 46.2414 55.0759 47.8111 54.245 49.4235C53.7207 50.4406 53.6169 51.5055 54.1184 52.5151C54.6427 53.5699 55.0328 54.6223 55.1772 55.8052C55.3064 56.8726 55.2988 58.0253 56.2005 58.8742C56.7248 59.3715 56.8642 60.0973 57.0947 60.7428C57.2998 61.3204 56.8464 62.0488 57.543 62.5561C58.2649 63.081 58.8348 62.3828 59.4883 62.3979C62.4342 62.4732 63.9363 60.6273 65.1065 58.2916C65.337 57.8294 65.0913 57.1363 65.6942 56.8952C66.7454 56.4757 66.9759 55.6444 66.7023 54.7353C66.3021 53.4067 67.0367 52.9144 68.0549 52.4624C69.4633 51.837 70.3827 48.7378 69.5671 47.4996C68.9212 46.5177 69.1061 45.4302 69.2885 44.4005C69.5443 42.9513 70.6411 41.9794 71.6847 41.0878C73.7263 39.3448 75.0561 37.2226 75.6336 34.6257C75.7248 34.2138 75.7172 33.7542 75.1245 33.8195C74.5672 33.8823 74.0226 34.0732 73.4806 34.2389C71.6948 34.7864 71.6948 34.794 71.0945 33.0987C71.0945 33.0987 71.092 33.0962 71.0894 33.0937C71.0894 33.0937 71.0894 33.0912 71.0894 33.0887C69.8787 32.1695 68.8401 31.0996 68.136 29.7383C68.0676 29.6052 67.9637 29.4646 67.9637 29.3264C67.9511 27.473 66.4009 26.2951 65.8892 24.6626C65.8259 24.4617 65.6384 24.3009 65.5093 24.1226C65.7904 24.2206 66.2464 24.2482 66.3223 24.429C66.9024 25.8103 68.3563 26.6869 68.5615 28.2817C68.6324 28.8241 69.2201 29.0226 69.5114 29.4395C70.2915 30.5571 70.7323 31.7978 71.0869 33.0862H71.0894C71.0894 33.0862 71.0894 33.0937 71.0894 33.0962C71.3529 33.3373 71.5226 33.8095 71.9861 33.6337C72.8093 33.3222 73.587 32.8878 74.4203 32.6115C75.3778 32.295 75.9655 31.3984 76.8621 31.092C78.121 30.6601 79.7573 28.9748 79.8384 27.7216C79.8485 27.5759 79.7447 27.3976 79.6434 27.2746C79.3242 26.8752 78.9746 26.5261 78.4427 26.3855C78.1084 26.2951 77.9386 25.9359 78.0197 25.6722C78.0856 25.4562 78.3161 25.7802 78.5035 25.7928C79.0481 25.8279 79.5902 25.9585 80.1322 25.9485C81.9636 25.9158 83.7063 25.9535 84.6916 27.9301C84.9094 28.3671 85.4794 28.8869 86.1303 28.7337C86.5382 28.6383 86.5306 28.7915 86.5635 29.0502C86.8877 31.5943 88.0605 33.827 89.2257 36.0547C89.5727 36.7178 90.0337 36.9438 90.4516 36.0472C90.5833 35.7659 90.8088 35.5299 90.9937 35.2762C91.0216 35.2486 91.0519 35.2209 91.0773 35.1933C91.4395 34.3319 91.361 33.4403 91.2343 32.5512C91.1963 32.2825 91.1026 31.951 91.4319 31.8731C92.2931 31.6697 92.5642 30.8961 93.0429 30.326C93.5698 29.6956 94.1194 28.9472 94.7197 28.5504C95.2821 28.1762 96.427 27.488 97.2198 28.794C97.6403 29.4847 98.3723 29.9845 98.4052 30.8961C98.4154 31.1799 98.2887 31.5341 98.6889 31.6697C99.0587 31.7952 99.426 31.853 99.7249 31.4813C99.8161 31.3683 99.9985 31.1749 100.102 31.4738C100.32 32.0891 100.462 32.7346 100.723 33.3298C101.26 34.5479 100.541 35.9794 101.587 37.1623C102.339 38.0112 102.4 39.3398 103.238 40.2113C103.507 40.3469 103.773 40.4951 104.046 40.6207C104.322 40.7487 104.647 40.6684 104.563 40.367C104.274 39.3373 104.373 38.1895 103.274 37.4185C102.425 36.8208 101.792 35.8965 101.913 34.7362C101.956 34.3293 101.346 33.1414 102.757 33.9828C103.4 34.367 104.049 34.8794 104.241 35.3917C104.697 36.6148 105.118 35.8865 105.601 35.555C105.753 35.4495 105.855 35.2611 106.017 35.1782C106.959 34.686 107.207 33.9752 106.962 32.938C106.718 31.9233 106.171 31.1448 105.417 30.5043C104.71 29.9041 104.54 29.3892 105.227 28.6358C105.574 28.254 105.9 28.1586 106.232 28.4198C106.574 28.6885 106.455 29.005 106.078 29.2687C105.804 29.4596 105.718 29.7986 106.042 30.0347C106.45 30.3361 106.898 30.4893 107.281 29.9744C107.481 29.7032 107.78 29.3666 107.352 29.113C106.774 28.7739 107.114 28.6232 107.423 28.4374C108.76 27.6362 110.609 27.586 111.278 25.7953C111.61 24.9062 112.043 24.0724 111.909 23.0628C111.734 21.7568 110.87 20.8627 110.082 19.9334C109.692 19.4713 109.743 19.2352 110.242 18.9967C110.424 18.9087 110.576 18.7932 110.553 18.5722C110.531 18.3462 110.391 18.1653 110.176 18.1227C109.844 18.0548 109.426 17.9067 109.181 18.0398C108.59 18.3587 108.499 17.4973 108.036 17.663C108.198 17.5199 108.367 17.3818 108.522 17.2311C108.573 17.1808 108.593 17.098 108.618 17.0276C108.679 16.8569 108.783 16.6986 108.98 16.7313C109.183 16.7639 109.117 16.9674 109.14 17.1055C109.254 17.7509 109.593 17.7861 110.054 17.4245C110.619 16.9849 111.237 17.1984 111.41 17.8815C111.453 18.0498 111.574 18.3211 111.681 18.3311C112.443 18.4014 112.605 19.0444 112.77 19.5442C113.124 20.6191 113.755 20.2172 114.363 19.9234C115.153 19.5416 114.475 19.0971 114.345 18.7154C114.262 18.4692 114.021 18.2407 113.796 18.0825C112.919 17.4747 112.881 16.7062 113.241 15.8045C113.423 15.3424 113.588 15.0034 114.153 15.3851C114.366 15.5283 114.591 15.4655 114.756 15.252C115.566 14.1947 115.716 11.7861 115.052 10.661C114.968 10.5203 114.763 10.3872 114.925 10.1738C115.05 10.2792 115.207 10.3646 115.29 10.4952C115.782 11.2537 116.263 12.0197 116.739 12.7882C116.896 13.0444 117.071 13.293 117.4 13.2001C117.603 13.1449 117.871 13.0017 117.927 12.8359C118.028 12.5371 117.686 12.419 117.504 12.2382C117.306 12.0448 116.818 11.8615 117.157 11.545C117.545 11.1834 117.261 11.0151 117.086 10.8117C116.843 10.5279 116.529 10.3044 116.286 10.0206C115.493 9.09632 114.33 8.66937 113.583 8.37301C112.658 8.00633 111.635 8.32781 110.792 7.77779C110.695 7.715 110.427 7.66226 110.564 7.55678C111.123 7.13484 111.007 6.4266 111.339 5.92681C111.638 5.47977 114.361 5.26629 114.984 5.58776C115.508 5.86151 116.078 5.71334 116.577 5.56516C116.977 5.4446 116.496 5.07039 116.582 4.83933C116.668 4.60325 116.463 4.23155 116.78 4.15118C117.058 4.08086 117.337 4.22904 117.59 4.45256C117.968 4.78157 118.436 5.28387 118.791 4.3948C118.849 4.24662 118.968 4.19639 119.107 4.3069C119.247 4.41991 119.244 4.54549 119.163 4.70622C118.915 5.21104 118.497 5.72338 118.492 6.23573C118.482 7.09968 118.846 7.88829 119.609 8.46845C120.265 8.97075 121.025 9.34747 121.549 10.0231C121.719 10.2416 121.904 10.5932 122.279 10.4199C122.638 10.2541 122.681 9.89498 122.646 9.54086C122.56 8.6769 122.785 7.82048 122.18 6.96406C121.813 6.44167 121.65 5.87658 120.913 5.83389C120.711 5.82384 120.663 5.69073 120.627 5.54255C120.589 5.37428 120.642 5.19597 120.825 5.20601C121.349 5.23364 121.848 4.83431 122.395 5.16332C122.803 5.40944 123.12 5.27633 123.274 4.8092C123.441 4.30439 123.92 4.08589 124.31 3.83222C124.538 3.68153 125.052 3.99045 125.126 3.48564C125.197 3.00594 124.741 2.90297 124.422 2.71461C124.303 2.6468 124.123 2.49359 124.138 2.41072C124.183 2.19473 124.414 2.24998 124.568 2.27007C125.278 2.36551 125.924 2.73972 126.666 2.73219C126.975 2.72716 127.094 2.68196 127.208 2.3429C127.59 1.23031 126.813 1.13487 126.101 1.08715L126.119 1.07962ZM64.8836 1.69745C65.0685 1.67987 65.1698 1.69745 65.1774 1.85316C65.1825 1.99129 65.1268 2.07166 64.9824 2.00887C64.8709 1.96367 64.7722 1.89083 64.6683 1.83056C64.757 1.77531 64.8456 1.72005 64.8861 1.69494L64.8836 1.69745ZM63.6652 1.71252C63.8197 1.76024 64.0882 1.74517 64.0325 2.02394C64.0097 2.14198 64.1009 2.34039 63.878 2.38058C63.6602 2.30021 63.5335 2.15203 63.5107 1.926C63.5006 1.81298 63.5006 1.66229 63.6652 1.71252ZM54.283 7.73509C54.3185 7.57687 54.3692 7.52162 54.5718 7.49399C55.1949 7.41111 55.9168 7.29809 56.198 6.70035C56.4538 6.15787 56.4842 5.53 57.0516 5.13569C57.2289 5.01263 57.082 4.80417 56.9148 4.67106C56.1271 4.05072 56.5045 3.58861 57.1478 3.19933C57.5658 2.94818 58.0319 2.78242 58.1889 2.23742C58.2674 1.9712 58.5663 1.95362 58.812 1.95111C58.8804 1.95111 58.9488 2.04152 59.0755 2.13194C58.8905 2.28514 58.7588 2.41574 58.6068 2.51117C57.3961 3.2596 57.3733 4.30187 58.5562 5.03523C58.7259 5.14071 58.845 5.23615 58.8146 5.47725C58.7842 5.70329 58.6955 5.75603 58.4853 5.83389C57.9483 6.0323 57.809 6.49692 57.8444 7.02434C57.8824 7.58189 57.7051 7.85313 57.1301 7.52915C56.9325 7.41864 56.7755 7.44878 56.5982 7.5392C55.9244 7.87322 55.2152 7.98122 54.4654 7.89081C54.3337 7.87574 54.245 7.91843 54.2856 7.7376L54.283 7.73509ZM65.5802 21.5709C65.5624 21.6789 65.3649 21.8472 65.2661 21.8372C63.4981 21.6538 61.6135 22.2666 59.9949 21.0335C59.3541 20.5462 58.2674 21.1063 58.1838 21.91C58.1585 22.1561 58.0217 22.4851 57.8166 22.3244C57.2973 21.915 56.5779 22.0155 56.0891 21.4604C55.6483 20.9581 54.8682 20.9406 54.202 20.8049C53.7815 20.7195 53.1837 20.7447 53.6017 19.9535C53.8246 19.5316 53.855 18.9087 53.5687 18.4994C53.2825 18.0925 52.7987 18.208 52.2921 18.3286C51.2536 18.5797 50.1593 18.2708 49.0853 18.5421C48.561 18.6752 48.0291 18.8234 47.6162 19.1046C46.9981 19.5266 46.4054 19.2277 45.8051 19.2503C45.7494 19.2503 45.6379 19.1674 45.643 19.1574C45.7215 18.9615 45.914 18.9565 46.0761 18.969C47.0665 19.0393 47.8239 18.5069 48.0772 17.7032C48.3913 16.7062 49.3868 16.3546 49.754 15.7116C50.2809 14.7924 50.7039 14.8125 51.4841 14.9406C51.6766 14.9732 51.9299 14.7522 52.1275 14.6091C52.6898 14.1972 52.9304 14.2775 53.2116 14.9808C53.4775 15.6488 54.2425 15.9778 54.8986 16.2918C55.3165 16.4927 55.8687 16.6635 55.8332 17.1356C55.7927 17.6882 55.1873 17.5751 54.7643 17.6153C54.5439 17.6379 54.2729 17.6078 54.202 17.8941C54.1311 18.188 54.397 18.2683 54.5845 18.3813C54.9492 18.5973 55.3722 19.0846 55.737 18.7606C56.2106 18.3412 56.4943 17.7057 56.8338 17.1507C56.8819 17.0728 56.6564 16.8694 56.9933 16.9422C57.4037 17.0301 57.4138 16.6685 57.2796 16.4852C56.9908 16.0908 56.854 15.4881 56.317 15.3826C55.6002 15.242 55.2456 14.702 54.777 14.275C54.6377 14.1469 54.5262 14.0038 54.6427 13.838C54.7567 13.6723 54.9365 13.838 54.9745 13.9058C55.4203 14.6543 56.3246 14.7346 56.9427 15.2545C57.7482 15.9301 57.7862 16.9397 58.2902 17.7334C58.4498 17.9845 58.4954 18.3537 58.7132 18.5119C59.0349 18.748 59.5871 19.2754 59.805 18.8786C60.0051 18.5094 60.4889 17.9795 60.1089 17.3843C59.9797 17.1833 59.6023 16.8669 59.9747 16.6961C60.2609 16.5655 60.765 15.9075 61.0537 16.9548C61.3374 17.9795 61.9048 19.1925 63.2853 19.0745C64.1161 19.0017 64.8988 19.6948 65.7499 19.0846C66.1957 18.7631 66.0716 19.2528 66.0842 19.4738C66.2565 20.2524 65.7068 20.8627 65.5853 21.5709H65.5802ZM68.6806 15.6262C68.5184 16.0105 68.0068 15.8422 67.6446 15.8849C67.1734 15.9351 66.7074 15.8372 66.3249 15.6137C65.2104 14.9682 64.0857 15.7141 62.9737 15.5258C62.4646 15.4404 62.2848 15.1842 62.3531 14.7145C62.4443 14.0892 62.8294 13.5668 63.2144 13.1373C63.4879 12.8359 63.9667 13.0796 64.0933 13.5542C64.2174 14.0113 64.4961 14.3177 64.9495 14.0967C66.0488 13.5567 66.9176 13.9762 67.7611 14.6317C67.8649 14.712 67.9713 14.7949 68.0524 14.8979C68.2576 15.1566 68.8756 15.1716 68.6806 15.6237V15.6262ZM73.1538 16.8343C73.2222 16.1361 72.3737 15.2821 71.8063 14.6091C71.3807 14.1017 71.4314 13.6647 71.8139 13.3357C72.323 12.8937 72.9081 12.3964 73.6883 12.7581C73.8479 12.8309 73.9264 13.0595 73.744 13.2403C72.8879 14.0917 72.9588 14.6342 73.8884 15.4554C74.6255 16.1084 74.9016 17.0402 75.1473 17.9594C75.2385 18.301 75.0206 18.3889 74.5799 18.3587C74.2253 17.869 73.012 18.2759 73.1538 16.8368V16.8343ZM77.4017 25.195C76.9989 25.7501 76.6291 26.3428 75.7856 26.2624C75.6818 26.2247 75.4893 26.1946 75.4867 26.1494C75.3905 24.9414 74.0758 24.5898 73.6832 23.6002C73.6098 23.4194 73.3666 23.1708 73.7111 23.0351C73.9441 22.9422 74.1189 23.0954 74.2531 23.3189C74.9472 24.4692 75.7552 25.4135 77.3282 24.8936C77.4245 24.861 77.5638 24.959 77.6828 24.9966C77.5866 25.0619 77.4624 25.1046 77.3991 25.1925L77.4017 25.195Z" fill="#0EA67B"/>
<path d="M121.597 51.9701C121.909 52.6357 122.137 53.3364 123.117 53.7884C124.059 54.2254 124.548 55.1572 125.252 55.8428C127.492 58.0253 127.418 60.0923 126.478 61.9458C126.106 62.6816 125.131 63.0056 124.903 63.8796C124.872 63.9927 124.741 64.068 124.741 64.1835C124.743 65.6302 123.312 65.7959 122.203 65.9491C121.339 66.0672 120.169 66.1249 119.044 65.4343C118.667 65.2032 118.573 64.9696 118.697 64.7034C118.854 64.3618 118.507 64.2513 118.236 64.1032C118.145 64.0529 118.013 63.9324 118.082 64.1433C118.104 64.2162 118.137 64.3016 118.122 64.3618C118.056 64.5929 117.866 64.7185 117.58 64.6858C117.441 64.6708 117.215 64.5628 117.134 64.4548C116.929 64.176 117.152 64.0755 117.311 63.9474C117.39 63.8847 117.479 63.729 117.436 63.6687C117.286 63.4678 117.208 63.6611 117.089 63.6687C116.364 63.7064 116.265 63.0961 116.096 62.7495C115.655 61.8554 114.849 61.7197 114.29 61.8353C112.828 62.1341 111.301 62.3803 110.272 63.307C110.09 63.4703 109.832 63.5155 109.523 63.4703C108.765 63.3572 108.221 63.5732 107.767 63.9575C107.192 64.4447 106.475 64.3493 105.65 63.7214C105.305 63.4577 105.214 63.2141 105.434 62.9956C105.797 62.6365 105.832 62.1467 105.563 61.6067C105.09 60.6524 104.93 59.6854 104.226 58.7261C103.39 57.5883 103.935 55.5641 105.024 55.1472C105.759 54.8659 106.478 54.5645 107.245 54.3334C107.701 54.1953 108.069 53.9492 108.084 53.5398C108.127 52.3594 109.254 51.8923 109.588 50.9052C109.801 50.2799 110.462 50.2899 111.202 50.7797C111.615 51.0534 111.62 51.0283 111.65 50.644C111.701 50.0011 112.438 49.7525 112.712 49.3431C113.357 48.3661 114.452 49.2426 115.28 49.1899C116.063 49.1397 116.311 49.6721 116.2 50.2347C116.015 51.174 117.38 52.5679 118.421 52.382C118.928 52.2916 118.624 51.518 118.616 51.0409C118.606 50.3427 118.474 49.6118 118.418 48.9011C118.398 48.6499 118.489 48.4389 118.824 48.4741C119.135 48.5093 119.226 48.7604 119.386 48.9739C119.852 49.6018 120.065 50.3351 120.918 50.8073C121.326 51.0333 121.537 51.498 121.6 51.9626L121.597 51.9701Z" fill="#0EA67B"/>
<path d="M116.306 42.3762C117.203 42.2079 117.134 42.9413 117.289 43.436C117.441 43.9258 117.527 44.2975 118.069 43.6746C118.553 43.1196 119.115 42.8207 119.931 43.3054C120.566 43.6822 121.354 43.8002 122.068 44.0488C122.281 44.1217 122.484 44.2347 122.674 44.3578C123.358 44.8048 125.169 45.3774 125.838 45.3222C125.99 45.3096 126.179 45.2217 126.271 45.1062C126.473 44.8475 126.653 44.4758 127.003 44.8525C127.307 45.1815 127.266 45.6663 126.906 45.8998C126.499 46.166 125.995 46.5277 125.488 46.3067C124.875 46.038 124.685 46.5503 124.523 46.809C124.341 47.1053 124.748 47.3942 124.979 47.6076C125.361 47.9593 125.903 48.3862 125.711 48.8358C125.48 49.3783 124.918 48.8132 124.495 48.8056C123.849 48.7931 123.368 48.5444 123.274 47.8136C123.231 47.4796 123.049 47.2209 122.643 47.2033C122.238 47.1832 122.286 47.4996 122.195 47.7332C121.985 48.2682 120.751 48.3209 119.989 47.801C119.771 47.6528 119.589 47.5574 119.318 47.6177C119.08 47.6704 118.864 47.5926 118.745 47.354C118.644 47.1531 118.626 46.9471 118.786 46.7738C119.229 46.2916 118.857 45.7516 118.575 45.6236C117.952 45.3398 117.357 44.9379 116.569 44.9781C115.941 45.0082 115.835 44.31 115.652 43.8228C115.619 43.7324 115.685 43.5616 115.637 43.529C115.379 43.3532 114.87 43.3331 115.098 42.8509C115.326 42.3687 115.863 42.454 116.303 42.3737L116.306 42.3762Z" fill="#0EA67B"/>
<path d="M103.081 41.8664C103.188 41.354 103.124 40.6633 104.17 40.9095C104.482 40.9823 104.976 40.5051 105.247 40.2314C105.817 39.6537 106.594 39.2494 106.926 38.4407C107.045 38.1493 107.256 37.7575 107.595 37.8454C108.165 37.9936 108.639 38.403 108.96 38.8852C109.201 39.2444 108.712 39.3925 108.522 39.5558C107.843 40.1334 108.373 40.598 108.616 41.0777C108.803 41.4494 109.186 41.6604 108.456 42.0346C107.99 42.2757 107.717 43.107 107.59 43.7198C107.397 44.6692 107.015 44.9053 106.138 44.5285C105.764 44.3653 105.277 44.5361 104.826 44.3678C103.937 44.0363 103.061 42.9011 103.079 41.8638L103.081 41.8664Z" fill="#0EA67B"/>
<path d="M99.426 41.0853C99.9022 41.6604 100.541 42.0673 100.837 42.8383C100.986 43.2276 101.83 43.0342 102.141 43.5993C102.316 43.9157 102.415 44.1141 102.101 44.3603C101.673 44.6968 101.756 45.1966 101.812 45.616C101.86 45.9777 102.293 45.7642 102.537 45.8571C103.783 46.3419 105.214 46.1158 106.394 46.8467C106.688 47.03 107.142 47.1305 107.038 47.585C106.921 48.0899 106.536 47.8312 106.207 47.796C104.831 47.6478 103.469 47.4344 102.144 47.0501C101.658 46.9095 100.804 46.9722 101.192 46.0003C101.202 45.9752 101.181 45.9149 101.159 45.9074C99.1347 45.0786 98.5648 43.0593 97.4706 41.4721C96.9437 40.706 96.3687 39.9852 95.6645 39.3674C95.4923 39.2167 95.3555 38.9907 95.5759 38.7772C95.7785 38.5813 96.0242 38.5788 96.313 38.6441C97.3591 38.8852 97.8353 39.832 98.6053 40.4097C98.8916 40.6232 99.1575 40.8592 99.4336 41.0853L99.426 41.0777V41.0853Z" fill="#0EA67B"/>
<path d="M71.9076 57.1664C71.135 57.1664 70.2307 55.5942 70.7399 54.7227C71.3098 53.7457 71.2161 52.7361 71.3858 51.7391C71.4643 51.2795 71.6745 50.9856 72.095 50.9027C73.1412 50.6968 73.4806 49.8328 73.9087 49.0543C74.0252 48.8433 74.129 48.6424 74.3899 48.6499C74.6381 48.6574 74.6179 48.9036 74.6989 49.0643C75.1878 50.0714 75.0029 51.0007 74.5951 52.0153C74.0733 53.3138 73.5414 54.6223 73.2349 56.0061C73.0956 56.639 72.7283 57.2041 71.9101 57.1664H71.9076Z" fill="#0EA67B"/>
<path d="M118.548 17.4872C118.332 16.9322 118.401 16.2566 117.745 15.787C116.957 15.2244 117.542 14.2449 117.266 13.4814C117.192 13.2805 117.783 13.3634 118.028 13.499C118.555 13.7903 119.034 14.1419 119.672 14.2148C120.057 14.2575 120.602 14.5036 120.369 14.9481C120.166 15.3324 119.652 15.6312 119.105 15.6162C118.933 15.6111 118.717 15.3675 118.601 15.5961C118.489 15.8171 118.806 15.8096 118.92 15.9025C119.606 16.46 120.389 18.9163 120.113 19.735C120.032 19.9736 119.837 20.0465 119.611 20.1344C118.725 20.4734 117.864 20.8853 116.967 21.1992C116.587 21.3323 116.635 21.586 116.579 21.8497C116.529 22.0983 116.42 22.3294 116.134 22.3746C115.86 22.4198 115.794 22.1712 115.693 22.0029C114.791 20.4935 115.179 19.6547 116.98 19.2302C117.289 19.1574 117.461 19.0368 117.499 18.6802C117.537 18.3386 117.595 17.9921 118.193 18.2256C118.507 18.3487 118.479 17.8162 118.545 17.4847L118.548 17.4872Z" fill="#0EA67B"/>
<path d="M126.286 71.168C125.924 71.06 125.551 71.0073 125.245 70.8415C124.872 70.6381 125.004 70.3267 125.308 70.1961C126.331 69.7565 127.21 69.0383 128.302 68.7143C129.115 68.4732 129.652 67.77 130.321 67.2852C130.645 67.0492 130.954 66.8181 131.278 67.2878C131.375 67.4259 131.529 67.4786 131.671 67.3455C131.838 67.1873 132.117 67.0718 131.97 66.7553C131.841 66.479 131.947 66.2731 132.19 66.1375C132.958 65.7005 133.186 65.0575 132.97 64.2237C132.897 63.9449 132.851 63.6285 133.247 63.5431C133.637 63.4577 133.847 63.734 133.87 64.0404C133.903 64.4899 134.323 64.839 134.171 65.3313C134.133 65.4569 134.26 65.5372 134.391 65.5021C134.612 65.4468 134.896 65.2032 134.987 65.5975C135.06 65.9215 134.817 66.2178 134.551 66.3309C133.487 66.7829 132.699 67.6293 131.59 68.104C130.387 68.6188 129.12 69.317 128.077 70.2287C127.555 70.6858 126.944 70.9721 126.288 71.168H126.286Z" fill="#0EA67B"/>
<path d="M115.673 35.1154C115.987 34.9648 116.215 35.1205 116.321 35.3792C116.564 35.9769 116.98 36.6048 116.595 37.2427C116.422 37.529 116.524 38.1594 115.926 38.0665C115.412 37.9861 115.189 37.2829 114.956 37.1849C114.231 36.8785 113.57 36.8634 114.409 35.9141C114.472 35.8413 113.649 35.1607 113.687 34.5328C113.699 34.3319 113.575 34.0455 113.902 33.9652C114.153 33.9024 114.388 33.9526 114.586 34.1385C114.677 34.2239 114.791 34.2816 114.895 34.3494C114.93 34.2917 114.996 34.2314 114.994 34.1736C114.984 33.9928 114.839 33.9652 114.69 33.9049C114.292 33.7467 114.044 33.5433 113.52 33.9225C113.003 34.2992 112.96 33.4604 112.757 33.1238C112.671 32.9782 112.757 32.7019 112.653 32.604C111.916 31.9083 112.6 30.9966 112.266 30.2381C112.19 30.0673 112.408 29.7986 112.628 29.8187C112.932 29.8438 113.37 29.6178 113.52 29.9543C113.745 30.4641 114.079 31.0117 113.722 31.6069C113.482 32.0087 113.735 32.403 114.011 32.4231C114.92 32.4884 115.057 33.4428 115.769 33.7743C116.326 34.0355 115.868 34.6684 115.673 35.1205C115.346 35.2385 114.971 35.3038 114.925 35.7433C114.923 35.7785 115.065 35.8714 115.123 35.8614C115.533 35.786 115.576 35.4319 115.67 35.118L115.673 35.1154Z" fill="#0EA67B"/>
<path d="M108.732 45.0183C108.302 44.3276 108.499 43.4034 108.854 42.4641C109.181 41.5976 109.515 40.8442 110.69 41.2661C111.017 41.3842 111.379 41.4821 111.683 41.138C111.802 41.0024 112.005 41.0426 112.154 41.1556C112.291 41.2611 112.334 41.4143 112.245 41.5574C112.035 41.8915 111.83 42.2682 111.369 42.2707C111.012 42.2707 110.657 42.1627 110.3 42.1552C110.156 42.1527 109.999 42.2682 109.872 42.3661C109.832 42.3988 109.872 42.5369 109.877 42.6248C110.016 42.6022 110.153 42.562 110.293 42.557C110.632 42.5445 111.075 42.2833 111.265 42.7077C111.448 43.1146 110.999 43.21 110.726 43.3507C110.211 43.6144 110.586 43.9208 110.688 44.2021C110.786 44.4733 111.09 44.742 110.824 45.0233C110.599 45.2644 110.341 45.5758 109.905 45.272C109.692 45.1238 109.748 45.395 109.72 45.4854C109.629 45.7994 109.431 45.9928 109.105 45.9475C108.715 45.8948 108.763 45.5608 108.732 45.0158V45.0183Z" fill="#0EA67B"/>
<path d="M73.6148 -4.19704C73.9745 -4.16188 74.3393 -4.18197 74.3646 -3.7726C74.3899 -3.37578 74.0074 -3.48628 73.782 -3.39587C72.9461 -3.05933 71.9937 -3.04426 71.2389 -2.47666C70.7222 -2.08738 70.4309 -1.72572 71.2288 -1.33644C71.401 -1.25105 71.5935 -1.15813 71.5276 -0.922044C71.4669 -0.69601 71.2566 -0.680941 71.0641 -0.690987C70.4638 -0.716102 69.8711 -0.806516 69.3163 -1.0426C68.749 -1.2837 69.0276 -2.05222 69.7064 -2.81823C70.7981 -4.04384 72.3407 -3.77762 73.6148 -4.19955V-4.19704Z" fill="#0EA67B"/>
<path d="M57.9052 -4.73952C58.1838 -4.63404 58.5688 -4.57125 58.4853 -4.17695C58.4017 -3.77511 58.0091 -3.94087 57.7634 -3.971C57.3885 -4.0137 57.0111 -4.02375 56.6615 -4.30754C56.317 -4.58632 56.0688 -4.16188 55.9143 -3.9258C55.6787 -3.55912 55.4203 -3.56163 55.1012 -3.73492C54.5617 -4.02877 54.0196 -4.3201 53.4978 -4.64409C53.3281 -4.74957 53.1989 -4.95551 53.2749 -5.18155C53.3534 -5.4126 53.5763 -5.46032 53.7866 -5.46535C54.7947 -5.48544 55.8155 -5.69892 56.7932 -5.26945C57.163 -5.09113 57.5329 -4.91533 57.9052 -4.73701V-4.73952Z" fill="#0EA67B"/>
<path d="M44.0624 9.80206C43.8724 9.80206 43.6521 9.6589 43.6217 9.35501C43.5457 8.60407 44.488 7.3232 45.1313 7.30562C45.6075 7.29307 45.9849 7.55175 46.0103 8.00633C46.0635 8.93056 45.1567 9.77443 44.0624 9.80206Z" fill="#0EA67B"/>
<path d="M111.633 47.5273C111.009 47.6855 110.394 47.8613 109.766 47.9919C109.528 48.0421 109.517 48.1074 109.55 48.3209C109.619 48.7604 109.335 48.9563 108.968 48.7956C108.405 48.5469 108.071 47.8889 107.311 47.9417C107.154 47.9517 107.066 47.5474 107.288 47.4394C107.681 47.2485 108.114 46.8391 108.552 47.3389C108.727 47.5398 108.709 47.5122 108.975 47.3816C109.768 46.9873 110.683 47.0752 111.557 47.1028C111.752 47.1079 111.706 47.3665 111.627 47.5298L111.633 47.5248V47.5273Z" fill="#0EA67B"/>
<path d="M100.774 -3.6646C101.883 -3.03673 103.17 -3.73241 104.37 -3.34313C104.626 -3.26025 105.021 -3.22509 104.928 -2.85339C104.847 -2.53694 104.487 -2.41639 104.175 -2.52187C102.939 -2.94882 101.678 -2.74539 100.419 -2.7253C100.021 -2.72028 99.4286 -2.57963 99.3652 -3.097C99.2918 -3.71985 99.9098 -3.45615 100.254 -3.52396C100.401 -3.5541 100.546 -3.60181 100.771 -3.66209L100.774 -3.6646Z" fill="#0EA67B"/>
<path d="M117.119 67.2752C117.491 67.9432 118.391 66.5544 118.694 67.6268C118.821 68.0789 117.337 69.2894 116.742 69.302C116.402 69.3095 116.101 69.086 116.205 68.8022C116.397 68.2672 116.086 67.4183 117.119 67.2777V67.2752Z" fill="#0EA67B"/>
<path d="M91.0899 35.1833C91.9461 35.5851 92.3007 36.3812 92.5008 37.1975C92.5895 37.5616 92.1462 37.8706 91.7131 37.9384C91.2799 38.0062 91.1102 37.7349 91.0089 37.3758C90.8088 36.6726 90.8594 35.9694 91.0064 35.2687C91.0342 35.241 91.0621 35.2134 91.0925 35.1858L91.0899 35.1833Z" fill="#0EA67B"/>
<path d="M83.2529 -4.53609C82.5436 -4.72696 81.7432 -4.94044 80.9428 -5.16648C80.7857 -5.21168 80.6768 -5.33977 80.7275 -5.51306C80.8035 -5.76924 80.9985 -5.96513 81.2569 -5.96011C82.2219 -5.94002 83.0502 -5.40758 83.9672 -5.19662C84.104 -5.16397 84.1622 -4.95802 84.0634 -4.80733C83.8962 -4.55116 83.6176 -4.55618 83.2503 -4.5386L83.2529 -4.53609Z" fill="#0EA67B"/>
<path d="M57.9052 -4.73952C57.5354 -4.91784 57.1656 -5.09364 56.7932 -5.27196C56.7426 -5.36991 56.6387 -5.47288 56.6488 -5.56581C56.6868 -5.98523 57.0693 -5.97518 57.2948 -5.89481C57.9027 -5.67882 58.845 -6.16354 59.0907 -5.25438C59.2097 -4.81487 58.6221 -4.77971 58.2446 -4.74957C58.1307 -4.73952 58.0167 -4.74203 57.9052 -4.73952Z" fill="#0EA67B"/>
<path d="M111.625 47.5323C111.985 47.4218 112.339 47.2937 112.704 47.2058C112.97 47.143 113.221 47.2435 113.287 47.5147C113.355 47.801 113.092 47.904 112.879 47.9592C112.395 48.0848 111.98 48.3259 111.569 48.5972C111.311 48.7705 110.949 49.0166 110.746 48.6323C110.576 48.3083 110.809 47.9994 111.166 47.8312C111.331 47.7533 111.475 47.6277 111.627 47.5248L111.622 47.5298L111.625 47.5323Z" fill="#0EA67B"/>
<path d="M112.752 26.6366C112.57 26.9581 112.97 27.6488 112.218 27.6839C111.764 27.704 111.491 27.3248 111.554 26.8752C111.625 26.3805 111.6 25.6873 112.299 25.6622C112.871 25.6421 112.701 26.2172 112.75 26.6366H112.752Z" fill="#0EA67B"/>
<path d="M112.978 34.9949C112.813 35.5248 112.321 35.9015 111.838 36.2682C111.709 36.3662 111.541 36.2908 111.448 36.1452C111.326 35.9618 111.361 35.776 111.491 35.6228C111.82 35.236 112.157 34.8593 112.337 34.3695C112.367 34.2892 112.572 34.1887 112.643 34.2188C112.927 34.3394 112.947 34.6182 112.978 34.9949Z" fill="#0EA67B"/>
<path d="M65.7727 -5.9576C66.0209 -5.92244 66.2818 -5.88477 66.5402 -5.84458C66.8644 -5.79686 67.3507 -5.83202 67.2976 -5.38498C67.2368 -4.89021 66.7403 -4.99821 66.373 -5.03588C66.1324 -5.06099 65.8917 -5.12127 65.6536 -5.17903C65.3699 -5.24685 64.9343 -5.25187 64.9672 -5.61101C65.0052 -6.01788 65.4611 -5.88477 65.7702 -5.95509L65.7727 -5.9576Z" fill="#0EA67B"/>
<path d="M133.259 55.8228C133.234 56.1392 133.087 56.2999 132.887 56.2321C132.241 56.0212 131.798 55.5842 131.676 54.9035C131.636 54.675 131.82 54.459 132.051 54.5369C132.707 54.7554 132.92 55.3908 133.259 55.8228Z" fill="#0EA67B"/>
<path d="M117.932 40.3544C117.932 40.7086 118.482 41.354 117.603 41.4746C117.165 41.5348 117.046 41.0501 117.058 40.691C117.071 40.2741 117.192 39.817 117.704 39.7667C118.018 39.7341 117.99 40.043 117.932 40.3544Z" fill="#0EA67B"/>
<path d="M68.7236 -5.22424C68.3614 -5.2368 67.832 -5.2142 67.87 -5.58841C67.9308 -6.17861 68.6071 -6.01285 69.02 -6.13089C69.3011 -6.21126 69.7318 -6.09322 69.714 -5.74161C69.6836 -5.09616 69.0732 -5.34228 68.7236 -5.22424Z" fill="#0EA67B"/>
<path d="M119.009 -1.43941C119.414 -1.3917 119.946 -1.50974 119.961 -1.00492C119.974 -0.585504 119.477 -0.600573 119.145 -0.613131C118.77 -0.6282 118.218 -0.527739 118.226 -1.09283C118.233 -1.59513 118.758 -1.34398 119.009 -1.44193V-1.43941Z" fill="#0EA67B"/>
<path d="M85.3502 -5.15392C85.6845 -5.14387 86.1658 -5.03588 86.0822 -4.73199C85.9404 -4.21713 85.2767 -4.36531 84.8613 -4.17192C84.6815 -4.08904 84.3927 -4.24225 84.451 -4.48837C84.5523 -4.92788 84.8613 -5.18406 85.3527 -5.15392H85.3502Z" fill="#0EA67B"/>
<path d="M114.426 44.5938C114.117 44.5235 113.649 44.7144 113.575 44.2021C113.54 43.9559 113.765 43.7399 114.062 43.7751C114.492 43.8253 115.11 43.7224 115.194 44.2623C115.267 44.737 114.7 44.4632 114.426 44.5938Z" fill="#0EA67B"/>
<path d="M70.7196 -5.11876C70.4359 -5.12629 70.1446 -5.17903 70.1725 -5.48293C70.2155 -5.97518 70.6816 -5.80942 70.978 -5.87723C71.2034 -5.92746 71.5023 -5.87723 71.482 -5.58841C71.4491 -5.13383 71.0033 -5.2142 70.7222 -5.11876H70.7196Z" fill="#0EA67B"/>
<path d="M31.7723 -5.80691C31.7723 -5.80691 31.7622 -5.79937 31.7597 -5.79686C31.7647 -5.79686 31.7723 -5.79937 31.7774 -5.80189C31.785 -5.8044 31.7926 -5.80942 31.8002 -5.81444C31.7901 -5.81444 31.7799 -5.80942 31.7723 -5.80691ZM20.4904 -3.77008C20.4904 -3.77008 20.4879 -3.76757 20.4853 -3.76506C20.4853 -3.76506 20.4904 -3.76506 20.4929 -3.76506C20.4929 -3.76506 20.4929 -3.77008 20.4929 -3.7726C20.4929 -3.7726 20.4904 -3.7726 20.4879 -3.77008H20.4904ZM16.4984 -1.84879C16.4984 -1.84879 16.4959 -1.84376 16.4933 -1.84125H16.5009C16.5009 -1.84125 16.506 -1.84879 16.5085 -1.84879C16.506 -1.84879 16.5035 -1.84879 16.4984 -1.84879Z" fill="#0EA67B"/>
<path d="M49.6248 -6.35441C48.214 -6.49004 46.8132 -6.77132 45.4175 -6.90946C42.2513 -7.22339 39.0876 -6.6357 35.9188 -6.43981C35.283 -6.39962 34.6422 -6.46241 33.9963 -6.31423C33.8342 -6.27656 33.3808 -6.82909 32.8919 -6.86425C30.6679 -7.02247 28.4693 -6.79142 26.258 -6.61059C25.0599 -6.51264 23.9327 -5.99778 22.6865 -6.14345C22.1545 -6.20624 21.4529 -6.09071 21.1717 -5.55074C20.9463 -5.11373 21.3794 -4.7571 21.7189 -4.43814C21.8632 -4.30503 21.8708 -4.02877 21.9392 -3.8178C21.7898 -3.82534 21.5871 -3.77511 21.5036 -3.85296C21.1211 -4.20457 20.8146 -3.99109 20.4954 -3.77511C20.4954 -3.77511 20.4954 -3.77008 20.4954 -3.76757C20.4954 -3.76757 20.4904 -3.76757 20.4878 -3.76757C20.3384 -3.57167 19.9508 -3.50386 20.0623 -3.1849C20.1763 -2.8559 20.5309 -2.86343 20.8323 -2.83832C20.888 -2.83329 20.9463 -2.83832 21.002 -2.83078C21.2756 -2.78558 21.5492 -2.73786 21.8252 -2.69265C21.691 -2.66251 21.5542 -2.60475 21.4225 -2.61479C21.2958 -2.62484 21.1819 -2.72279 21.0578 -2.75795C20.6651 -2.87097 20.3282 -2.63237 19.966 -2.58717C19.8394 -2.5721 19.5278 -2.88604 19.5481 -3.0091C19.6291 -3.49884 20.0167 -3.70981 20.4904 -3.76757C20.4904 -3.76757 20.4929 -3.77008 20.4954 -3.77259C20.4954 -3.77259 20.498 -3.77259 20.5005 -3.77511C20.5461 -4.00868 20.5638 -4.25229 20.6499 -4.46828C20.7158 -4.63906 20.9134 -4.7998 20.7361 -4.96807C20.4625 -5.22926 20.0977 -5.16145 19.7659 -5.12629C19.5608 -5.10369 19.4544 -4.97058 19.429 -4.74203C19.3682 -4.15937 19.12 -3.70227 18.4766 -3.57167C18.4234 -3.52144 18.3728 -3.47121 18.3196 -3.42098C18.3981 -3.29792 18.4538 -3.14974 18.5602 -3.05933C18.659 -2.97645 18.8084 -2.95636 18.9376 -2.90864C18.7857 -2.90864 18.6261 -2.94129 18.4842 -2.90362C17.357 -2.60475 16.1463 -3.33308 15.047 -2.61479C14.8494 -2.48671 14.4745 -2.46913 14.5201 -2.20542C14.5708 -1.92162 14.7987 -1.65038 15.0039 -1.41932C15.1609 -1.24352 15.3712 -1.34146 15.5764 -1.44946C15.8727 -1.60517 16.1944 -1.71317 16.5034 -1.84125C16.5034 -1.84125 16.5035 -1.84628 16.5085 -1.84879C16.5111 -1.84879 16.5136 -1.84879 16.5186 -1.84879C16.7998 -2.04217 17.0658 -2.36867 17.4204 -1.95929H17.4229C17.6078 -1.96683 17.8003 -2.0045 17.9827 -1.97687C18.426 -1.91157 19.3606 -2.42392 18.892 -1.23598C18.8312 -1.08027 18.963 -0.901952 19.1453 -0.844188C19.2923 -0.798981 19.4518 -0.793957 19.6038 -0.771354C19.4113 -0.552854 19.2492 -0.291658 19.0162 -0.123388C18.7933 0.0348368 18.6058 -0.236405 18.4184 -0.289146C17.4989 -0.547831 17.6154 -1.32891 17.4229 -1.95929H17.4178C17.1164 -1.92413 16.815 -1.88897 16.5161 -1.8513C16.5161 -1.8513 16.511 -1.84879 16.5085 -1.84628H16.5009C15.9082 -1.03757 14.7531 -1.10287 14.1579 -0.522716C13.4816 0.137808 12.8737 0.200596 12.1087 0.0448833C11.6831 -0.0430193 11.2779 -0.236405 10.865 -0.382072C11.3336 -0.733682 11.6857 -0.334353 12.0656 -0.186175C12.6887 0.0549293 13.0332 -0.497601 13.4917 -0.683451C13.8463 -0.826607 13.5728 -1.12799 13.4385 -1.38667C13.3245 -1.60266 13.5778 -1.73326 13.7602 -1.84125C13.9856 -1.97687 14.4036 -2.00952 14.2617 -2.39378C14.1199 -2.77553 13.7298 -2.60977 13.4182 -2.64744C12.8838 -2.71023 12.4988 -2.30337 11.9111 -2.36364C11.1284 -2.44401 10.5737 -2.84585 9.91258 -3.10705C8.35479 -3.72236 6.98951 -2.9664 5.66476 -2.23053C5.41399 -2.08989 5.34054 -1.89651 5.45452 -1.61271C5.56344 -1.33895 5.69515 -1.14306 6.02951 -1.20082C6.47532 -1.28119 6.92112 -1.35905 7.36946 -1.43941C7.43785 -1.45197 7.50371 -1.46704 7.5721 -1.48211C7.5721 -1.42937 7.5721 -1.37411 7.56197 -1.32137C7.37453 -0.444859 6.95658 -0.0982723 6.02191 -0.515181C4.6389 -1.13552 3.20269 -1.15561 1.68543 -0.947159C0.657034 -0.806515 -0.335899 -0.0982718 -1.35416 -0.459928C-2.31923 -0.801492 -3.2919 -0.977297 -4.2823 -1.09031C-5.78943 -1.2611 -7.22057 -1.71568 -8.85182 -1.31635C-10.2019 -0.987343 -11.4912 -0.231381 -12.9679 -0.377048C-13.2795 -0.409698 -13.4669 -0.206267 -13.3783 0.188038C-13.2567 0.725499 -13.4467 1.13487 -14.0698 0.866143C-14.8474 0.529603 -15.43 0.913862 -16.043 1.23784C-16.2938 1.37095 -16.4508 1.60452 -16.3419 1.89837C-16.238 2.17966 -15.9873 2.19975 -15.7238 2.17212C-15.5161 2.15203 -15.3034 2.1244 -15.0982 2.1445C-14.8854 2.16459 -14.4953 2.02394 -14.4979 2.22989C-14.4979 2.49862 -14.8981 2.55889 -15.1488 2.53127C-16.4787 2.3856 -17.4969 3.14909 -18.6064 3.65391C-19.4296 4.03063 -18.8039 4.6359 -18.8343 5.12062C-18.8571 5.51241 -18.4544 5.32908 -18.2087 5.3341C-18.0947 5.3341 -17.9807 5.41698 -17.8642 5.4647C-17.9579 5.54506 -18.0415 5.65808 -18.1504 5.70329C-18.6621 5.90672 -19.1864 6.07248 -19.6905 6.29098C-19.8957 6.38139 -20.0831 6.58985 -19.9615 6.841C-19.8374 7.09717 -19.6069 6.95653 -19.4093 6.90379C-18.8622 6.75561 -18.2619 6.70538 -17.773 6.44669C-16.9954 6.03481 -16.0886 6.76816 -15.3793 6.10513C-15.1083 5.85147 -14.8423 5.59278 -14.5738 5.33661C-13.9887 4.77906 -13.277 5.34414 -12.6057 5.09802C-11.7521 4.78659 -10.9238 4.17379 -9.84729 4.72632C-9.06206 5.12816 -7.98807 5.07039 -8.14511 6.39646C-8.17298 6.63003 -8.06913 6.97411 -7.89688 7.11977C-7.17751 7.72254 -7.22057 8.88787 -7.46121 9.19678C-8.09446 10.003 -7.85635 10.5982 -7.59039 11.3491C-7.50933 11.5777 -7.69424 11.9268 -7.82089 12.193C-8.42121 13.4387 -9.55346 14.3152 -10.1664 15.5685C-10.5895 16.4349 -10.7997 19.3357 -10.0981 19.848C-9.08486 20.5864 -9.2495 21.5333 -9.07726 22.5027C-8.97594 23.0829 -8.97847 24.0448 -8.82902 24.1628C-7.90955 24.8811 -7.98807 26.1117 -7.23071 26.8677C-6.99007 27.1063 -6.77477 27.2218 -6.4936 27.0586C-6.21244 26.8953 -6.20231 26.5964 -6.37455 26.3654C-7.24337 25.2026 -7.16231 23.6982 -7.82089 22.46C-7.88928 22.3319 -7.7829 22.1059 -7.7373 21.9301C-7.7297 21.9025 -7.55493 21.8824 -7.54733 21.8999C-7.47641 22.0481 -7.37509 22.2038 -7.37509 22.3595C-7.35989 23.668 -6.49867 24.635 -5.92368 25.6898C-5.41202 26.6241 -4.49761 27.3549 -5.00674 28.5981C-5.10806 28.8467 -4.88515 29.0376 -4.70278 29.2184C-4.22911 29.6881 -3.64652 29.9794 -3.08673 30.326C-1.97981 31.0117 -0.97168 31.9058 0.494923 31.4688C0.809013 31.3758 0.988855 31.5742 1.14083 31.8103C1.53598 32.4307 2.08817 32.7747 2.82274 32.938C3.62063 33.1163 4.55024 33.3348 4.78835 34.2188C5.03404 35.1406 5.71035 35.6755 6.3664 36.1C6.86793 36.4264 7.64049 37.5968 8.37506 36.1979C8.50931 35.9417 8.77527 35.899 8.94498 36.3034C9.59849 37.8605 9.23121 39.2243 7.98245 40.4373C7.372 41.03 6.99965 41.8689 7.52398 42.7278C7.69622 43.0116 7.68355 43.097 7.48091 43.3054C6.92872 43.8806 6.94139 44.7043 7.40746 45.1112C8.3092 45.8998 8.73221 46.9094 9.26668 47.8965C10.057 49.3582 10.7814 50.85 12.5064 51.5808C13.4512 51.9802 13.9679 52.8667 13.9856 53.9969C14.0135 55.7198 14.1098 57.4452 14.2237 59.1656C14.3099 60.459 14.9507 61.7122 14.515 63.0458C14.3377 63.5933 14.4238 64.1233 14.6341 64.6456C14.9 65.2986 14.9583 65.9541 14.8747 66.6724C14.8165 67.1823 15.0292 67.7649 15.6194 68.0211C15.7537 68.0789 16.045 67.8177 16.0196 68.1793C15.9994 68.4807 16.3869 68.7896 15.9614 69.096C15.7486 69.2492 15.4598 69.7013 15.6853 69.7867C16.2932 70.0228 16.0779 70.5301 16.2299 70.9043C16.6047 71.821 17.1645 72.5971 17.8788 73.2927C19.1428 74.5209 20.5917 75.1839 22.3825 74.9553C22.5066 74.9403 22.6586 74.8222 22.7169 74.7092C22.803 74.551 22.6611 74.4355 22.5244 74.3526C22.1039 74.0989 21.6961 73.8302 21.2629 73.5966C20.1028 72.9763 19.9078 72.0671 20.6398 71.0098C21.0274 70.4497 21.0755 69.8696 20.2447 69.5732C19.9939 69.4828 19.5709 69.3195 19.9078 69.0207C20.2953 68.6766 20.2979 68.2622 20.3764 67.8578C20.4853 67.2877 19.9002 66.4313 21.0653 66.3208C21.1008 66.3183 21.1616 66.1098 21.1337 66.0194C20.926 65.3388 21.2072 65.1856 21.8607 65.2158C22.3926 65.2384 22.846 64.9445 23.0968 64.4472C23.3324 63.9776 23.2741 63.5456 22.8967 63.1513C22.7929 63.0408 22.7701 62.8575 22.7093 62.7093C22.8562 62.7269 23.0056 62.7269 23.1424 62.7671C23.4388 62.8474 23.6895 62.7896 23.953 62.6339C24.9864 62.0161 25.2347 60.8558 25.8375 59.9491C26.2453 59.3363 26.7519 58.6884 26.4302 57.832C26.144 57.0685 26.6531 56.7294 27.1825 56.2824C27.8968 55.6796 29.0139 55.7575 29.5154 55.1271C30.5261 53.8563 30.9035 52.2665 30.9516 50.6315C30.9693 50.0212 30.7895 49.4335 31.3645 48.8885C31.9015 48.3812 32.3524 47.7232 32.6538 47.0476C33.3808 45.4151 32.9501 44.5938 30.8959 43.3808C30.3462 43.0543 29.8295 42.6273 29.1253 42.7353C28.5934 42.8157 28.1653 42.5545 27.7423 42.3234C27.066 41.9517 26.372 41.6479 25.6323 41.4068C25.2752 41.2912 24.7027 41.2259 24.6318 40.6357C24.4444 39.0459 23.5224 37.1749 21.6327 37.3833C21.2731 37.4235 20.9691 37.3281 20.7057 37.0619C20.0623 36.4164 19.462 35.7031 18.7274 35.1782C18.2588 34.8442 17.775 34.2465 17.0303 34.5403C16.6402 34.6935 16.2704 34.5303 15.9132 34.5303C15.1356 34.5303 14.6797 33.8245 13.9274 33.8446C13.6817 33.8522 13.056 34.3972 13.2004 33.483C13.2308 33.2921 12.8458 33.1866 12.7495 33.3021C12.134 34.0531 10.9739 34.043 10.4673 34.9447C10.2039 35.4143 9.86699 35.7182 9.2844 35.2938C8.95512 35.0552 8.56757 34.9999 8.15216 35.1782C7.14656 35.6102 6.68049 35.3088 6.61716 34.1962C6.58677 33.6688 6.62983 33.1515 6.79194 32.6341C7.08323 31.6998 6.54371 31.0594 5.53811 31.1096C5.28988 31.1222 5.04671 31.1473 4.79848 31.1548C4.46919 31.1674 4.27668 31.1423 4.39826 30.6852C4.60344 29.9141 4.97832 29.2385 5.38106 28.5705C5.55837 28.2766 5.56344 28.038 5.30001 27.8246C4.68449 27.3223 3.24575 27.7517 3.01018 28.4976C2.73662 29.3591 1.46759 29.9342 0.727957 29.4169C0.00352097 28.9045 -0.536005 27.9677 -0.254845 27.2042C0.317612 25.6496 0.54558 23.6153 2.6277 23.2335C3.93979 22.995 5.29241 22.7966 6.62476 22.7112C7.41252 22.6609 8.37759 23.0678 8.06097 24.3361C8.00018 24.5797 8.21042 24.9112 8.34213 25.1774C8.49411 25.4839 8.70688 25.8103 9.08936 25.7953C9.49718 25.7802 9.59596 25.3859 9.71248 25.072C9.87712 24.635 9.86953 24.1703 9.73021 23.7358C9.3148 22.45 9.74794 21.5785 10.946 20.9757C11.5844 20.6542 12.1467 20.1896 12.7673 19.833C13.669 19.3156 13.3651 18.1427 14.1933 17.4973C15.0774 16.8091 15.6371 15.7066 16.9619 15.6739C17.1747 15.6689 17.4052 15.5835 17.4457 15.3474C17.6053 14.4107 18.4488 14.2449 19.1149 13.8958C19.3049 13.7953 19.6595 13.5417 19.5861 14.1645C19.538 14.5865 19.9939 14.7095 20.2801 14.5136C21.0679 13.9686 22 13.7577 22.8359 13.3332C23.2437 13.1248 23.5452 12.8234 23.2665 12.4065C22.9448 11.9268 22.6713 12.3964 22.3926 12.5773C22.0406 12.8083 21.6631 12.9665 21.3389 12.5547C21.0375 12.1779 21.2832 11.9519 21.6049 11.7434C21.9367 11.5275 21.9139 11.2411 21.7695 10.8996C21.7087 10.7539 21.306 10.8067 21.539 10.6007C21.7949 10.3747 21.8708 10.6961 22.0152 10.8694C22.3091 11.2236 23.0588 11.4421 23.0791 11.1306C23.1373 10.1964 23.7478 10.6208 24.1429 10.5178C24.4697 10.4324 24.6951 10.0633 25.0953 10.1913C24.837 10.5153 24.5837 10.8418 24.3202 11.1608C24.2747 11.216 24.1936 11.2411 24.1303 11.2838C23.9479 11.4094 23.8111 11.5676 23.8719 11.8037C23.9276 12.0197 24.1455 12.0172 24.305 12.1076C24.9104 12.4492 25.6602 11.9042 26.1668 12.3236C26.9318 12.9565 27.1344 12.3613 27.1268 11.8816C27.1217 11.4496 27.5194 10.6535 26.4758 10.6007C26.1085 10.5831 26.1795 10.2541 26.4353 9.98288C27.2914 9.07372 27.0027 7.85313 25.8375 7.43874C25.5639 7.3433 25.3284 7.13987 25.379 6.93644C25.5538 6.22066 25.0396 5.63799 25.07 4.96491C25.0801 4.74892 25.0624 4.53293 24.8192 4.44754C24.5963 4.36968 24.3988 4.48019 24.2569 4.6359C23.9707 4.94733 23.649 5.20099 23.2589 5.36675C23.0791 5.44461 22.9094 5.52246 22.7523 5.31652C22.6105 5.13569 22.7169 5.02016 22.8232 4.87449C23.1171 4.47266 22.9854 4.18635 22.5598 3.97036C22.3825 3.87994 22.2052 3.75939 22.0811 3.6087C21.539 2.94315 19.7431 3.15412 19.3201 3.8699C19.0871 4.2642 18.9351 4.77655 18.3956 4.9624C18.1524 5.04528 17.9852 5.29894 18.1423 5.56265C18.6995 6.4919 17.9878 6.7531 17.3596 7.03941C16.7035 7.33828 15.9183 7.46385 15.9766 8.47598C15.9892 8.70704 15.7309 8.97326 15.5586 9.18925C15.4548 9.31985 15.2901 9.53333 15.09 9.38264C14.9304 9.2646 14.8595 9.06367 14.9254 8.82508C15.1888 7.88578 15.2876 7.02434 13.8919 6.97662C13.7475 6.9716 13.5829 6.83849 13.4714 6.72296C12.9927 6.23322 12.481 5.89165 11.7541 6.18801C11.6933 6.21312 11.5996 6.16289 11.521 6.14531C11.8554 5.6832 11.2703 5.10053 11.8909 4.58316C13.4917 3.24453 15.6371 3.00845 17.2836 1.79791C17.4052 1.71252 17.5293 1.62964 17.6509 1.54425C18.1296 1.41114 18.6033 1.20771 19.0896 1.1625C20.3004 1.04948 20.8374 0.512022 20.8045 -0.648291C20.7969 -0.886883 20.9387 -0.690987 21.0147 -0.688475C21.6581 -0.655826 22.1393 -0.153526 22.803 -0.118365C23.0816 -0.103296 23.3425 0.233245 23.6034 0.436677C23.6161 0.449234 23.5477 0.632574 23.4818 0.6602C22.8131 0.933953 22.2863 1.54927 21.4326 1.39356C21.0122 1.31821 20.5967 1.54425 20.6474 2.05659C20.7006 2.6041 21.1641 2.54131 21.5314 2.44839C22.0583 2.31528 22.3622 2.48857 22.7473 2.88037C23.1601 3.3023 23.7706 3.57856 24.3456 3.7845C24.7534 3.93268 24.8648 3.5434 24.8775 3.19179C24.8775 3.18928 24.9763 3.17421 25.0219 3.18677C26.1668 3.50071 26.0098 2.78744 25.8907 2.10431C25.8628 1.94609 25.7691 1.69745 25.8375 1.63969C26.0325 1.47142 26.1465 1.75521 26.3061 1.81549C26.8203 2.00887 27.2661 1.76777 27.7145 1.59197C27.9095 1.51411 27.9905 1.24036 27.8639 1.10725C27.2155 0.421608 26.6177 -0.309238 25.992 -1.00995C25.6323 -1.4143 25.0852 -1.72572 24.7509 -2.18784C24.5279 -2.49926 24.2873 -2.64493 23.92 -2.68512C23.6921 -2.71023 23.4362 -2.53443 23.2285 -2.76046C23.4616 -2.81069 23.6921 -2.86594 23.9251 -2.90864C24.1987 -2.95887 24.5558 -2.91617 24.5837 -3.29541C24.609 -3.64702 24.2772 -3.66962 24.0239 -3.73241C23.9555 -3.74999 23.8896 -3.78515 23.8238 -3.81278C23.915 -3.82282 24.0239 -3.86552 24.0973 -3.83538C25.0979 -3.40089 25.9667 -3.971 26.757 -4.34019C28.3629 -5.09113 30.0879 -5.3247 31.7596 -5.78933C31.7647 -5.78933 31.7698 -5.79435 31.7723 -5.79937C31.7824 -5.79937 31.7926 -5.8044 31.8002 -5.80691C32.1447 -5.96513 32.4841 -6.14847 32.8868 -6.09824C32.9096 -6.09824 32.935 -6.08317 32.9577 -6.07313C32.5702 -5.98522 32.1852 -5.89732 31.8002 -5.80691C31.7926 -5.80189 31.785 -5.79937 31.7774 -5.79435C31.7723 -5.79435 31.7647 -5.79184 31.7596 -5.78933C30.9643 -5.20917 30.0651 -4.94546 29.0848 -4.92035C28.8391 -4.91533 28.5605 -4.95802 28.4237 -4.69431C28.2742 -4.40047 28.525 -4.22969 28.6719 -4.01119C29.0772 -3.39587 29.6319 -3.35317 30.2601 -3.52647C31.3569 -3.82785 32.3904 -3.25774 32.36 -2.33602C32.3524 -2.07231 32.0737 -1.75586 32.1548 -1.55996C32.4309 -0.904463 31.942 -0.359468 31.7394 0.0423717C31.2049 1.10474 30.792 2.01139 31.7571 3.00594C31.8458 3.09635 31.942 3.22946 31.9445 3.34499C31.9724 4.51535 33.1072 4.21146 33.7024 4.58316C34.2192 4.90966 34.5763 4.28178 34.8398 3.89501C35.473 2.96325 36.4634 2.20477 37.3576 1.91595C39.2548 1.30314 41.0355 0.306079 43.0796 0.0725093C44.0041 -0.0329733 45.0731 -0.349422 45.1237 -1.66294C45.1262 -1.76591 45.3036 -1.88144 45.4175 -1.9618C46.0179 -2.38122 46.8158 -2.66502 46.5473 -3.65204C46.5067 -3.80022 46.5979 -3.73492 46.6638 -3.73241C47.4313 -3.6872 47.5098 -4.09407 47.2008 -4.63153C47.0564 -4.88017 47.2236 -4.86258 47.3223 -4.94044C47.9683 -5.45279 48.7358 -5.5206 49.5184 -5.56329C49.7768 -5.57836 50.1036 -5.63613 50.1416 -5.94755C50.1796 -6.27154 49.8503 -6.3293 49.6223 -6.34939L49.6248 -6.35441ZM8.0711 0.250826C7.75701 0.301056 7.85833 0.0122342 7.78741 -0.130921C7.72661 -0.256496 7.78994 -0.299192 7.99511 -0.2791C8.09643 -0.188686 8.24334 -0.0555768 8.39026 0.0750208C8.28387 0.135297 8.18509 0.233246 8.0711 0.250826ZM9.55797 0.42663C9.44651 0.318636 9.33253 0.208131 9.22108 0.100136C9.47185 -0.0103693 9.72008 -0.125899 9.97591 -0.228871C10.0316 -0.251474 10.1026 -0.228871 10.1203 -0.228871C9.93538 -0.0128818 9.74541 0.20813 9.55797 0.42663Z" fill="#0EA67B"/>
<path d="M12.0403 -4.76715C12.6482 -4.79729 13.1371 -4.96807 13.0307 -4.11416C12.9902 -3.78013 13.5702 -3.82031 13.821 -4.01621C14.3884 -4.46075 14.7633 -4.06895 15.1711 -3.78013C15.3357 -3.6646 15.3459 -3.48377 15.2319 -3.32806C14.9406 -2.93375 14.5454 -2.95636 14.1047 -3.01663C13.7577 -3.06435 13.36 -3.07942 13.0409 -2.96138C11.6882 -2.45908 10.6218 -3.45364 9.39588 -3.59679C9.32495 -3.60433 9.19831 -3.83789 9.23123 -3.89566C9.30469 -4.03128 9.44147 -4.18197 9.58079 -4.21964C10.4344 -4.45823 11.2602 -4.84752 12.0403 -4.76213V-4.76715Z" fill="#0EA67B"/>
<path d="M44.8299 3.03859C44.0396 2.9105 43.1885 3.00845 43.1987 1.75521C43.2037 1.03441 43.6495 0.961579 43.9687 1.08464C44.8122 1.41114 45.5695 1.07962 46.3598 0.981671C47.0311 0.898792 47.4592 1.32323 47.639 1.80293C47.8239 2.30523 47.2185 2.33286 46.8791 2.50364C46.2256 2.83265 45.5341 2.98585 44.8324 3.03608L44.8299 3.03859Z" fill="#0EA67B"/>
<path d="M11.1259 28.9522C9.99873 29.4495 9.64411 28.0205 8.6993 27.7919C8.15218 27.6588 7.68104 27.4554 7.13391 27.6864C6.90341 27.7844 6.66531 27.7869 6.53866 27.5383C6.40188 27.267 6.61972 27.1289 6.81729 27.0033C7.82542 26.3528 9.64918 26.5663 10.632 27.473C10.8751 27.6965 11.131 27.8647 11.4375 27.9853C11.744 28.1059 12.1315 28.1912 12.1112 28.6358C12.0986 28.8844 11.7997 28.9824 11.1284 28.9547L11.1259 28.9522Z" fill="#0EA67B"/>
<path d="M18.4716 -3.57168C18.4184 -3.52145 18.3652 -3.47122 18.3145 -3.42099C17.5952 -3.22509 16.8859 -2.71274 16.1488 -3.42099C15.9665 -3.59679 15.7106 -3.69725 15.8778 -3.99361C16.0374 -4.2749 16.3008 -4.50344 16.62 -4.33015C16.967 -4.14179 17.2633 -4.18197 17.585 -4.32513C17.4812 -4.49088 17.352 -4.6466 17.2735 -4.82491C17.1215 -5.17652 17.3925 -5.29959 17.6433 -5.39251C18.2234 -5.6085 18.6717 -5.31466 19.0846 -4.97309C19.2239 -4.85756 19.2188 -4.55367 19.0744 -4.53107C18.4741 -4.43061 18.5526 -3.96096 18.4691 -3.57168H18.4716Z" fill="#0EA67B"/>
<path d="M15.1204 29.6931C15.0546 29.7911 15.0115 29.9016 14.933 29.9694C14.4796 30.3411 12.2886 30.3411 11.8276 29.9819C11.6832 29.8689 11.5363 29.6253 11.6604 29.5701C12.1138 29.3767 12.3215 28.7815 12.6634 28.7036C13.4917 28.5152 14.2643 28.912 14.9558 29.3892C15.0368 29.4445 15.0647 29.5776 15.1255 29.6906L15.1204 29.6931Z" fill="#0EA67B"/>
<path d="M17.2785 1.79037C17.4027 1.70498 17.5242 1.6221 17.6484 1.53671C17.9853 1.55429 18.3297 1.53671 18.659 1.5995C19.0871 1.67987 19.4291 1.93102 19.3505 2.41071C19.2644 2.95069 18.8313 2.75479 18.4843 2.72716C18.2791 2.71209 18.0663 2.71963 17.8637 2.75479C17.5091 2.81507 17.0911 3.13151 16.8403 2.67945C16.6124 2.27007 17.1164 2.08171 17.2785 1.78786V1.79037Z" fill="#0EA67B"/>
<path d="M14.5075 -4.30754C14.163 -4.34019 13.6893 -4.28494 13.745 -4.66669C13.859 -5.46535 14.6189 -5.09113 15.0926 -5.22424C15.313 -5.28452 15.7537 -5.23931 15.6752 -4.89524C15.5333 -4.27992 14.9178 -4.40549 14.5075 -4.31006V-4.30754Z" fill="#0EA67B"/>
<path d="M16.1083 30.3788C15.7056 30.4164 15.4827 30.2281 15.4801 29.8413C15.4801 29.4947 15.7461 29.4244 16.0323 29.4294C16.3768 29.4344 16.7112 29.5274 16.7365 29.9217C16.7643 30.3336 16.4173 30.3612 16.1083 30.3813V30.3788Z" fill="#0EA67B"/>
<path d="M24.6926 72.371C25.027 72.3886 25.4171 72.371 25.3917 72.7879C25.3613 73.2852 24.8699 73.1144 24.5761 73.1772C24.3228 73.2299 24.0594 73.0818 24.0594 72.7854C24.0594 72.3484 24.4241 72.3886 24.6926 72.371Z" fill="#0EA67B"/>
<path d="M10.2444 29.5625C10.5079 29.6328 10.9182 29.5701 10.9131 30.0246C10.9106 30.326 10.6421 30.4039 10.3761 30.3788C10.0443 30.3486 9.70237 30.2607 9.69984 29.8589C9.69731 29.5625 9.9886 29.5751 10.2419 29.56L10.2444 29.5625Z" fill="#0EA67B"/>
<path d="M129.019 46.2062C129.014 46.4951 128.867 46.6608 128.639 46.6357C128.173 46.5855 128.102 46.1811 128.021 45.8245C127.983 45.6512 128.054 45.4478 128.279 45.4955C128.68 45.5758 128.9 45.8722 129.016 46.2062H129.019Z" fill="#0EA67B"/>
<path d="M69.1618 0.185527C68.8579 0.228222 68.5463 0.461791 68.2576 0.1579C68.141 0.0348363 68.1182 -0.105807 68.2196 -0.251474C68.3487 -0.439837 68.5387 -0.532762 68.7591 -0.49509C69.1542 -0.427279 69.3163 -0.201245 69.1568 0.19306L69.1618 0.188038V0.185527Z" fill="#0EA67B"/>
<path d="M112.896 44.7948C112.587 44.7295 112.289 44.6416 112.321 44.2849C112.347 44.0062 112.613 43.966 112.846 44.0062C113.112 44.0514 113.385 44.1619 113.375 44.4808C113.368 44.7747 113.107 44.7897 112.896 44.7948Z" fill="#0EA67B"/>
<path d="M120.417 14.2047C120.164 14.1922 120.05 14.0741 120.088 13.8807C120.156 13.5341 120.394 13.3332 120.749 13.3006C120.924 13.283 121.053 13.3985 121.015 13.5743C120.944 13.9109 120.696 14.1017 120.417 14.2072V14.2047Z" fill="#0EA67B"/>
<path d="M52.0236 16.5705C52.0895 16.1662 52.363 15.684 52.2161 15.1189C52.1553 14.8878 52.4441 14.6945 52.7227 14.6945C52.9481 14.6945 53.1179 14.8979 53.0697 15.0636C52.9076 15.6312 53.1761 16.1737 53.1204 16.7288C53.0824 17.103 52.9861 17.4044 52.5302 17.4044C52.0185 17.4044 52.0515 17.0276 52.0211 16.5705H52.0236Z" fill="#0EA67B"/>
<path d="M60.5725 19.1298C60.9017 19.406 61.649 18.9615 61.7858 19.6421C61.8668 20.0515 61.3627 20.1042 61.0233 20.1017C60.5345 20.1017 60.0076 20.0038 59.8936 19.4688C59.8227 19.1423 60.2482 19.1775 60.575 19.1298H60.5725Z" fill="#0EA67B"/>
<path d="M65.1445 19.401C65.4105 19.3809 65.6156 19.4588 65.6131 19.7149C65.608 20.0691 65.3243 20.172 65.0255 20.2047C64.7823 20.2298 64.529 20.167 64.5214 19.8832C64.5087 19.4638 64.8912 19.4839 65.1445 19.4035V19.401Z" fill="#0EA67B"/>
<path d="M50.0605 16.9046C50.0276 17.1833 49.83 17.2939 49.5894 17.3014C49.3032 17.3089 49.1132 17.1231 49.0955 16.8569C49.0777 16.5781 49.3082 16.4651 49.5539 16.4776C49.8148 16.4877 50.0302 16.6007 50.058 16.9071L50.0605 16.9046Z" fill="#0EA67B"/>
</g>
</g>
<defs>
<clipPath id="clip0_1_572">
<rect width="52" height="52" fill="white"/>
</clipPath>
</defs>
</svg>
