<svg width="1424" height="413" viewBox="0 0 1424 413" fill="none" xmlns="http://www.w3.org/2000/svg">
<mask id="mask0_98_655" style="mask-type:alpha" maskUnits="userSpaceOnUse" x="-116" y="0" width="1656" height="1656">
<circle cx="712" cy="828" r="828" fill="url(#paint0_linear_98_655)"/>
</mask>
<g mask="url(#mask0_98_655)">
<circle cx="712" cy="828" r="828" fill="url(#paint1_linear_98_655)"/>
<circle cx="712" cy="-601" r="783" fill="#FFF159" fill-opacity="0.07"/>
<path d="M1540 -369C1540 88.2917 1169.29 459 712 459C254.708 459 -116 88.2917 -116 -369C-116 -826.292 254.708 -1197 712 -1197C1169.29 -1197 1540 -826.292 1540 -369ZM65.298 -369C65.298 -11.8364 354.836 277.702 712 277.702C1069.16 277.702 1358.7 -11.8364 1358.7 -369C1358.7 -726.164 1069.16 -1015.7 712 -1015.7C354.836 -1015.7 65.298 -726.164 65.298 -369Z" fill="#FFF159" fill-opacity="0.07"/>
<ellipse cx="553.5" cy="94" rx="98.5" ry="42" fill="url(#paint2_linear_98_655)"/>
<path fill-rule="evenodd" clip-rule="evenodd" d="M651.002 100C651.66 98.0404 652 96.0371 652 94C652 70.804 607.9 52 553.5 52C499.1 52 455 70.804 455 94C455 96.0371 455.34 98.0404 455.998 100C462.825 79.6462 503.878 64 553.5 64C603.122 64 644.175 79.6462 651.002 100Z" fill="#FFF159" fill-opacity="0.09"/>
<ellipse cx="743.976" cy="208" rx="60.9762" ry="26" fill="url(#paint3_linear_98_655)"/>
<path fill-rule="evenodd" clip-rule="evenodd" d="M804.335 211.714C804.742 210.501 804.952 209.261 804.952 208C804.952 193.641 777.652 182 743.976 182C710.3 182 683 193.641 683 208C683 209.261 683.211 210.501 683.618 211.714C687.844 199.114 713.257 189.429 743.976 189.429C774.695 189.429 800.108 199.114 804.335 211.714Z" fill="#FFF159" fill-opacity="0.09"/>
<ellipse cx="869.024" cy="292.178" rx="120.024" ry="51.1777" fill="url(#paint4_linear_98_655)"/>
<path fill-rule="evenodd" clip-rule="evenodd" d="M987.832 299.489C988.633 297.101 989.048 294.66 989.048 292.178C989.048 263.913 935.311 241 869.024 241C802.736 241 749 263.913 749 292.178C749 294.66 749.414 297.101 750.216 299.489C758.536 274.688 808.558 255.623 869.024 255.623C929.489 255.623 979.512 274.688 987.832 299.489Z" fill="#FFF159" fill-opacity="0.09"/>
<ellipse cx="564.024" cy="402.954" rx="157.024" ry="66.9543" fill="url(#paint5_linear_98_655)"/>
<path fill-rule="evenodd" clip-rule="evenodd" d="M719.457 412.52C720.505 409.396 721.048 406.202 721.048 402.954C721.048 365.976 650.746 336 564.024 336C477.302 336 407 365.976 407 402.954C407 406.202 407.542 409.396 408.59 412.52C419.475 380.073 484.918 355.13 564.024 355.13C643.129 355.13 708.572 380.073 719.457 412.52Z" fill="#FFF159" fill-opacity="0.09"/>
</g>
<defs>
<linearGradient id="paint0_linear_98_655" x1="712" y1="0" x2="712" y2="720.5" gradientUnits="userSpaceOnUse">
<stop stop-color="#D76545"/>
<stop offset="1" stop-color="#B52222"/>
</linearGradient>
<linearGradient id="paint1_linear_98_655" x1="712" y1="0" x2="712" y2="720.5" gradientUnits="userSpaceOnUse">
<stop stop-color="#D76545"/>
<stop offset="1" stop-color="#B52222"/>
</linearGradient>
<linearGradient id="paint2_linear_98_655" x1="553.5" y1="52" x2="553.5" y2="136" gradientUnits="userSpaceOnUse">
<stop stop-color="#BE342C"/>
<stop offset="1" stop-color="#A62121"/>
</linearGradient>
<linearGradient id="paint3_linear_98_655" x1="743.976" y1="182" x2="743.976" y2="234" gradientUnits="userSpaceOnUse">
<stop stop-color="#BE342C"/>
<stop offset="1" stop-color="#A62121"/>
</linearGradient>
<linearGradient id="paint4_linear_98_655" x1="869.024" y1="241" x2="869.024" y2="343.355" gradientUnits="userSpaceOnUse">
<stop stop-color="#BE342C"/>
<stop offset="1" stop-color="#A62121"/>
</linearGradient>
<linearGradient id="paint5_linear_98_655" x1="564.024" y1="336" x2="564.024" y2="469.909" gradientUnits="userSpaceOnUse">
<stop stop-color="#BE342C"/>
<stop offset="1" stop-color="#A62121"/>
</linearGradient>
</defs>
</svg>
