<svg width="167" height="100" viewBox="0 0 167 100" fill="none" xmlns="http://www.w3.org/2000/svg">
<g clip-path="url(#clip0_1_577)">
<circle cx="83.4931" cy="40.1542" r="38.7452" fill="#F3FBC0"/>
<ellipse cx="95.9408" cy="19.5086" rx="19.0837" ry="10.9232" transform="rotate(32.7384 95.9408 19.5086)" fill="#FAFEE1"/>
<ellipse cx="83.4931" cy="64.5292" rx="83.4931" ry="35.4709" fill="#ACEAD8"/>
<ellipse cx="83.4931" cy="70.35" rx="46.3851" ry="19.8273" fill="#5BB59B"/>
<ellipse cx="83.4931" cy="40.1543" rx="12.5513" ry="6.73038" fill="#5BB59B"/>
<ellipse cx="44.9298" cy="46.7027" rx="10.3684" ry="5.63897" fill="#5BB59B"/>
<ellipse cx="10.3684" cy="5.63897" rx="10.3684" ry="5.63897" transform="matrix(-1 0 0 1 132.425 41.0637)" fill="#5BB59B"/>
<ellipse cx="20.1912" cy="67.0758" rx="8.91321" ry="4.91136" fill="#5BB59B"/>
<ellipse cx="8.91321" cy="4.91136" rx="8.91321" ry="4.91136" transform="matrix(-1 0 0 1 155.708 62.1644)" fill="#5BB59B"/>
<ellipse cx="44.566" cy="88.904" rx="5.63897" ry="3.09234" fill="#5BB59B"/>
<ellipse cx="5.63897" cy="3.09234" rx="5.63897" ry="3.09234" transform="matrix(-1 0 0 1 128.059 85.8116)" fill="#5BB59B"/>
<ellipse cx="83.4931" cy="95.4525" rx="4.91136" ry="2.72853" fill="#5BB59B"/>
<path d="M122.143 59.3836C113.832 54.0426 99.6244 50.5228 83.4931 50.5228C67.4237 50.5228 53.2628 54.0157 44.939 59.3222L44.7612 65.183C44.7524 65.3284 44.7479 65.4743 44.7479 65.6207C44.7479 74.7627 62.0947 82.1738 83.4931 82.1738C104.891 82.1738 122.238 74.7627 122.238 65.6207C122.238 65.5471 122.237 65.4737 122.235 65.4004L122.143 59.3836Z" fill="#EAF797"/>
</g>
<defs>
<clipPath id="clip0_1_577">
<rect width="166.986" height="100" fill="white"/>
</clipPath>
</defs>
</svg>
